<svg width="25" height="25" viewBox="0 0 732 694" fill="none" xmlns="http://www.w3.org/2000/svg">
<path d="M731.55 187.05H171.375L126.15 0.450195H0.474609V27.1002H105.175L235.125 563.175C207.425 571.25 187.05 596.525 187.05 626.85C187.05 663.65 216.875 693.5 253.7 693.5C290.525 693.5 320.35 663.65 320.35 626.85C320.35 611.775 315.15 598.025 306.725 586.875H493.9C485.475 598.025 480.275 611.8 480.275 626.85C480.275 663.65 510.1 693.5 546.9 693.5C583.7 693.5 613.55 663.65 613.55 626.85C613.55 590.025 583.725 560.225 546.9 560.2H261.825L248.9 506.875H623.1L731.525 187L731.55 187.05ZM293.675 626.9C293.675 648.95 275.75 666.875 253.7 666.875C231.65 666.875 213.725 648.95 213.725 626.9C213.725 604.85 231.65 586.925 253.7 586.925C275.75 586.925 293.675 604.875 293.675 626.9ZM586.9 626.9C586.9 648.95 568.95 666.875 546.9 666.875C524.85 666.875 506.925 648.95 506.925 626.9C506.925 604.85 524.85 586.925 546.9 586.925C568.95 586.925 586.9 604.875 586.9 626.9ZM242.45 480.275L177.825 213.725H694.375L604 480.275H242.45Z" fill="#C6A362"/>
</svg>
